<svg xmlns="http://www.w3.org/2000/svg" viewBox="0 0 1200 780" width="1200" height="780" role="img" aria-label="Mockups Take@Shoot : Feed, Detail Shoot, Capture">
  <defs>
    <linearGradient id="mbg" x1="0" y1="0" x2="0" y2="1">
      <stop offset="0" stop-color="#0A0A0C"/><stop offset="1" stop-color="#000000"/>
    </linearGradient>
    <radialGradient id="mglow" cx="50%" cy="36%" r="60%">
      <stop offset="0" stop-color="#FA195E" stop-opacity="0.16"/><stop offset="100%" stop-color="#FA195E" stop-opacity="0"/>
    </radialGradient>
    <linearGradient id="bw" x1="0" y1="0" x2="1" y2="1">
      <stop offset="0" stop-color="#6B6B6E"/><stop offset="60%" stop-color="#2B2B2D"/><stop offset="100%" stop-color="#0F0F11"/>
    </linearGradient>
    <radialGradient id="fc" cx="50%" cy="38%" r="58%">
      <stop offset="0" stop-color="#CACACE" stop-opacity="0.85"/><stop offset="100%" stop-color="#CACACE" stop-opacity="0"/>
    </radialGradient>
    <radialGradient id="fab" cx="50%" cy="50%" r="50%">
      <stop offset="0" stop-color="#FA195E" stop-opacity="0.55"/><stop offset="100%" stop-color="#FA195E" stop-opacity="0"/>
    </radialGradient>
    <radialGradient id="camv" cx="50%" cy="42%" r="70%">
      <stop offset="0" stop-color="#3A3A3D"/><stop offset="100%" stop-color="#050506"/>
    </radialGradient>
    <g id="frame">
      <rect x="0" y="0" width="320" height="680" rx="42" fill="#0D0E0F" stroke="#3E3D3F" stroke-width="2"/>
      <rect x="10" y="10" width="300" height="660" rx="33" fill="#000000"/>
      <rect x="132" y="22" width="56" height="8" rx="4" fill="#1A1A1B"/>
    </g>
  </defs>

  <rect width="1200" height="780" fill="url(#mbg)"/>
  <rect width="1200" height="780" fill="url(#mglow)"/>

  <!-- ============ PHONE A : FEED ============ -->
  <g transform="translate(90,50)" font-family="'Segoe UI',Helvetica,Arial,sans-serif">
    <use href="#frame"/>
    <text x="30" y="52" font-size="13" font-weight="700" fill="#F4F2F0">9:41</text>
    <rect x="262" y="44" width="22" height="11" rx="2" fill="none" stroke="#F4F2F0" stroke-width="1.2"/>
    <rect x="264" y="46" width="16" height="7" rx="1" fill="#F4F2F0"/>
    <rect x="285" y="47" width="2" height="5" rx="1" fill="#F4F2F0"/>

    <text x="26" y="98" font-size="26" font-weight="800" fill="#F4F2F0">Feed</text>
    <circle cx="252" cy="88" r="8" fill="none" stroke="#F4F2F0" stroke-width="2"/>
    <line x1="258" y1="94" x2="264" y2="100" stroke="#F4F2F0" stroke-width="2"/>
    <path d="M281 80 a8 8 0 0 1 8 8 v4 l2 3 h-20 l2 -3 v-4 a8 8 0 0 1 8 -8 z" fill="none" stroke="#F4F2F0" stroke-width="1.6"/>
    <circle cx="291" cy="80" r="4" fill="#FA195E"/>

    <rect x="24" y="118" width="60" height="30" rx="15" fill="#FA195E"/>
    <text x="54" y="138" text-anchor="middle" font-size="13" font-weight="600" fill="#FFFFFF">Tous</text>
    <rect x="92" y="118" width="62" height="30" rx="15" fill="#262626"/>
    <text x="123" y="138" text-anchor="middle" font-size="13" font-weight="500" fill="#A8A6A8">Amis</text>

    <!-- stories -->
    <g>
      <circle cx="46" cy="184" r="22" fill="none" stroke="#FA195E" stroke-width="2"/>
      <circle cx="46" cy="184" r="18" fill="#1D1D1E"/>
      <text x="46" y="190" text-anchor="middle" font-size="20" font-weight="800" fill="#FA195E">+</text>
      <text x="46" y="222" text-anchor="middle" font-size="9" fill="#A8A6A8">Toi</text>
    </g>
    <g>
      <circle cx="102" cy="184" r="22" fill="none" stroke="#FA195E" stroke-width="2"/>
      <circle cx="102" cy="184" r="18" fill="url(#bw)"/><ellipse cx="102" cy="180" rx="13" ry="15" fill="url(#fc)"/>
      <text x="102" y="222" text-anchor="middle" font-size="9" fill="#A8A6A8">Sarah</text>
    </g>
    <g>
      <circle cx="158" cy="184" r="22" fill="none" stroke="#FA195E" stroke-width="2"/>
      <circle cx="158" cy="184" r="18" fill="url(#bw)"/><ellipse cx="158" cy="180" rx="13" ry="15" fill="url(#fc)"/>
      <text x="158" y="222" text-anchor="middle" font-size="9" fill="#A8A6A8">Tom</text>
    </g>
    <g>
      <circle cx="214" cy="184" r="22" fill="none" stroke="#FA195E" stroke-width="2"/>
      <circle cx="214" cy="184" r="18" fill="url(#bw)"/><ellipse cx="214" cy="180" rx="13" ry="15" fill="url(#fc)"/>
      <text x="214" y="222" text-anchor="middle" font-size="9" fill="#A8A6A8">Chloe</text>
    </g>
    <g>
      <circle cx="270" cy="184" r="22" fill="none" stroke="#FA195E" stroke-width="2"/>
      <circle cx="270" cy="184" r="18" fill="url(#bw)"/><ellipse cx="270" cy="180" rx="13" ry="15" fill="url(#fc)"/>
      <text x="270" y="222" text-anchor="middle" font-size="9" fill="#A8A6A8">Leo</text>
    </g>

    <!-- author -->
    <circle cx="38" cy="252" r="14" fill="url(#bw)"/><ellipse cx="38" cy="249" rx="10" ry="11" fill="url(#fc)"/>
    <text x="60" y="249" font-size="14" font-weight="700" fill="#F4F2F0">Lucas</text>
    <text x="60" y="265" font-size="11" fill="#6E6C70">Paris, France · 22:14</text>
    <text x="288" y="256" text-anchor="end" font-size="18" font-weight="800" fill="#6E6C70">···</text>

    <!-- photobooth card -->
    <rect x="24" y="280" width="272" height="250" rx="12" fill="#ECE9E6"/>
    <rect x="36" y="292" width="166" height="176" rx="6" fill="url(#bw)"/>
    <ellipse cx="92" cy="358" rx="40" ry="46" fill="url(#fc)"/><ellipse cx="150" cy="346" rx="36" ry="42" fill="url(#fc)"/><ellipse cx="120" cy="430" rx="54" ry="40" fill="url(#fc)" opacity="0.7"/>
    <rect x="210" y="292" width="74" height="54" rx="5" fill="url(#bw)"/><ellipse cx="247" cy="316" rx="26" ry="22" fill="url(#fc)" opacity="0.8"/>
    <rect x="210" y="353" width="74" height="54" rx="5" fill="url(#bw)"/><ellipse cx="247" cy="377" rx="26" ry="22" fill="url(#fc)" opacity="0.7"/>
    <rect x="210" y="414" width="74" height="54" rx="5" fill="url(#bw)"/><ellipse cx="247" cy="438" rx="26" ry="22" fill="url(#fc)" opacity="0.75"/>
    <text x="36" y="497" font-size="10" font-weight="700" letter-spacing="1" fill="#2A2A2A">📍 PARIS, FRANCE</text>
    <text x="36" y="514" font-size="9" font-weight="600" letter-spacing="1" fill="#6E6C70">14 MAI 2025 · 22:14</text>
    <text x="284" y="500" text-anchor="end" font-size="13" font-weight="800" fill="#E6215A">Take@Shoot</text>
    <text x="284" y="516" text-anchor="end" font-size="12" font-weight="900" fill="#FA195E">+</text>

    <!-- reactions -->
    <circle cx="38" cy="556" r="9" fill="#FF3B5C"/><text x="52" y="561" font-size="12" font-weight="600" fill="#F4F2F0">14</text>
    <circle cx="90" cy="556" r="9" fill="#FF7A1A"/><text x="104" y="561" font-size="12" font-weight="600" fill="#F4F2F0">8</text>
    <circle cx="136" cy="556" r="9" fill="#FFC83D"/><text x="150" y="561" font-size="12" font-weight="600" fill="#F4F2F0">3</text>
    <path d="M268 549 h18 a4 4 0 0 1 4 4 v6 a4 4 0 0 1 -4 4 h-12 l-6 5 v-5 a4 4 0 0 1 -4 -4 v-6 a4 4 0 0 1 4 -4 z" fill="none" stroke="#A8A6A8" stroke-width="1.4"/>

    <!-- bottom nav -->
    <rect x="10" y="600" width="300" height="70" fill="#0D0E0F"/>
    <line x1="10" y1="600" x2="310" y2="600" stroke="#2A2A2C" stroke-width="1"/>
    <rect x="44" y="624" width="16" height="14" rx="2" fill="#FA195E"/><text x="52" y="660" text-anchor="middle" font-size="9" font-weight="600" fill="#FA195E">Feed</text>
    <circle cx="104" cy="628" r="7" fill="none" stroke="#6E6C70" stroke-width="2"/><line x1="109" y1="633" x2="113" y2="637" stroke="#6E6C70" stroke-width="2"/><text x="104" y="660" text-anchor="middle" font-size="9" fill="#6E6C70">Recherche</text>
    <circle cx="160" cy="622" r="28" fill="url(#fab)"/>
    <circle cx="160" cy="624" r="22" fill="#FA195E"/><text x="160" y="632" text-anchor="middle" font-size="26" font-weight="900" fill="#FFFFFF">+</text>
    <rect x="209" y="620" width="14" height="17" rx="2" fill="none" stroke="#6E6C70" stroke-width="2"/><path d="M209 620 l7 7 l7 -7" fill="none" stroke="#6E6C70" stroke-width="2"/><text x="216" y="660" text-anchor="middle" font-size="9" fill="#6E6C70">Souvenirs</text>
    <circle cx="270" cy="627" r="9" fill="none" stroke="#6E6C70" stroke-width="2"/><circle cx="270" cy="624" r="3" fill="#6E6C70"/><path d="M263 634 a7 6 0 0 1 14 0" fill="none" stroke="#6E6C70" stroke-width="2"/><text x="270" y="660" text-anchor="middle" font-size="9" fill="#6E6C70">Profil</text>
  </g>

  <!-- ============ PHONE B : DETAIL SHOOT ============ -->
  <g transform="translate(440,50)" font-family="'Segoe UI',Helvetica,Arial,sans-serif">
    <use href="#frame"/>
    <text x="30" y="52" font-size="13" font-weight="700" fill="#F4F2F0">9:41</text>
    <rect x="262" y="44" width="22" height="11" rx="2" fill="none" stroke="#F4F2F0" stroke-width="1.2"/>
    <rect x="264" y="46" width="16" height="7" rx="1" fill="#F4F2F0"/>
    <rect x="285" y="47" width="2" height="5" rx="1" fill="#F4F2F0"/>

    <path d="M40 88 l-10 8 l10 8" fill="none" stroke="#F4F2F0" stroke-width="2"/>
    <text x="60" y="93" font-size="16" font-weight="700" fill="#F4F2F0">Lucas</text>
    <text x="60" y="109" font-size="11" fill="#6E6C70">Paris, France · 22:14</text>
    <text x="288" y="100" text-anchor="end" font-size="18" font-weight="800" fill="#6E6C70">···</text>

    <!-- big card -->
    <rect x="24" y="128" width="272" height="262" rx="12" fill="#ECE9E6"/>
    <rect x="36" y="140" width="166" height="188" rx="6" fill="url(#bw)"/>
    <ellipse cx="92" cy="212" rx="42" ry="50" fill="url(#fc)"/><ellipse cx="152" cy="198" rx="38" ry="44" fill="url(#fc)"/><ellipse cx="120" cy="292" rx="56" ry="42" fill="url(#fc)" opacity="0.7"/>
    <rect x="210" y="140" width="74" height="58" rx="5" fill="url(#bw)"/><ellipse cx="247" cy="166" rx="26" ry="22" fill="url(#fc)" opacity="0.8"/>
    <rect x="210" y="205" width="74" height="58" rx="5" fill="url(#bw)"/><ellipse cx="247" cy="231" rx="26" ry="22" fill="url(#fc)" opacity="0.7"/>
    <rect x="210" y="270" width="74" height="58" rx="5" fill="url(#bw)"/><ellipse cx="247" cy="296" rx="26" ry="22" fill="url(#fc)" opacity="0.75"/>
    <text x="36" y="356" font-size="10" font-weight="700" letter-spacing="1" fill="#2A2A2A">📍 PARIS, FRANCE</text>
    <text x="36" y="373" font-size="9" font-weight="600" letter-spacing="1" fill="#6E6C70">14 MAI 2025 · 22:14</text>
    <text x="284" y="360" text-anchor="end" font-size="13" font-weight="800" fill="#E6215A">Take@Shoot</text>
    <text x="284" y="376" text-anchor="end" font-size="12" font-weight="900" fill="#FA195E">+</text>

    <text x="24" y="418" font-size="16" font-weight="700" fill="#F4F2F0">Premiere soiree de l'ete</text>

    <!-- reaction counters -->
    <circle cx="34" cy="444" r="9" fill="#FF3B5C"/><text x="48" y="449" font-size="12" font-weight="600" fill="#F4F2F0">14</text>
    <circle cx="86" cy="444" r="9" fill="#FF7A1A"/><text x="100" y="449" font-size="12" font-weight="600" fill="#F4F2F0">8</text>
    <circle cx="130" cy="444" r="9" fill="#FFC83D"/><text x="144" y="449" font-size="12" font-weight="600" fill="#F4F2F0">3</text>

    <line x1="24" y1="468" x2="296" y2="468" stroke="#2A2A2C" stroke-width="1"/>
    <text x="24" y="490" font-size="12" font-weight="700" fill="#A8A6A8">Commentaires (3)</text>

    <circle cx="36" cy="516" r="12" fill="url(#bw)"/><ellipse cx="36" cy="513" rx="8" ry="9" fill="url(#fc)"/>
    <text x="56" y="512" font-size="12" font-weight="700" fill="#F4F2F0">Sarah</text>
    <text x="56" y="528" font-size="12" fill="#A8A6A8">Trop bonne soiree 🔥🔥</text>
    <circle cx="36" cy="556" r="12" fill="url(#bw)"/><ellipse cx="36" cy="553" rx="8" ry="9" fill="url(#fc)"/>
    <text x="56" y="552" font-size="12" font-weight="700" fill="#F4F2F0">Tom</text>
    <text x="56" y="568" font-size="12" fill="#A8A6A8">Incroyable les gars 😎</text>

    <!-- comment input -->
    <rect x="24" y="588" width="230" height="36" rx="18" fill="#1A1A1B" stroke="#2A2A2C"/>
    <text x="42" y="610" font-size="12" fill="#6E6C70">Ecris un commentaire...</text>
    <circle cx="278" cy="606" r="18" fill="#FA195E"/><path d="M278 598 l0 16 M271 605 l7 -7 l7 7" fill="none" stroke="#FFFFFF" stroke-width="2"/>
  </g>

  <!-- ============ PHONE C : CAPTURE ============ -->
  <g transform="translate(790,50)" font-family="'Segoe UI',Helvetica,Arial,sans-serif">
    <use href="#frame"/>
    <rect x="10" y="10" width="300" height="660" rx="33" fill="url(#camv)"/>
    <!-- scene blobs -->
    <ellipse cx="120" cy="250" rx="70" ry="86" fill="url(#fc)" opacity="0.5"/>
    <ellipse cx="210" cy="230" rx="60" ry="74" fill="url(#fc)" opacity="0.45"/>
    <ellipse cx="165" cy="360" rx="96" ry="70" fill="url(#fc)" opacity="0.35"/>

    <text x="30" y="52" font-size="13" font-weight="700" fill="#F4F2F0">9:41</text>
    <circle cx="40" cy="92" r="15" fill="#000000" opacity="0.5"/><path d="M34 86 l12 12 M46 86 l-12 12" stroke="#F4F2F0" stroke-width="2"/>
    <rect x="120" y="80" width="80" height="26" rx="13" fill="#000000" opacity="0.45"/>
    <text x="160" y="98" text-anchor="middle" font-size="12" font-weight="700" letter-spacing="2" fill="#F4F2F0">SHOOT</text>

    <!-- countdown ring -->
    <circle cx="160" cy="300" r="74" fill="#000000" opacity="0.30"/>
    <circle cx="160" cy="300" r="74" fill="none" stroke="#2A2A2C" stroke-width="6"/>
    <circle cx="160" cy="300" r="74" fill="none" stroke="#FA195E" stroke-width="6" stroke-linecap="round" stroke-dasharray="350 465" transform="rotate(-90 160 300)"/>
    <text x="160" y="332" text-anchor="middle" font-size="84" font-weight="900" fill="#F4F2F0">3</text>

    <!-- burst dots -->
    <circle cx="139" cy="410" r="6" fill="#FA195E"/>
    <circle cx="153" cy="410" r="6" fill="#FA195E" opacity="0.4"/>
    <circle cx="167" cy="410" r="6" fill="#F4F2F0" opacity="0.25"/>
    <circle cx="181" cy="410" r="6" fill="#F4F2F0" opacity="0.25"/>
    <text x="160" y="442" text-anchor="middle" font-size="12" font-weight="600" fill="#A8A6A8">4 photos live · rafale</text>

    <!-- controls -->
    <rect x="36" y="556" width="248" height="60" rx="30" fill="#000000" opacity="0.35"/>
    <!-- flip -->
    <circle cx="78" cy="586" r="16" fill="#262626"/><path d="M70 582 a9 9 0 0 1 16 -2 M86 590 a9 9 0 0 1 -16 2" fill="none" stroke="#F4F2F0" stroke-width="1.8"/>
    <!-- shutter -->
    <circle cx="160" cy="586" r="30" fill="url(#fab)"/>
    <circle cx="160" cy="586" r="26" fill="none" stroke="#FA195E" stroke-width="4"/>
    <circle cx="160" cy="586" r="19" fill="#FA195E"/><text x="160" y="595" text-anchor="middle" font-size="22" font-weight="900" fill="#FFFFFF">+</text>
    <!-- filter -->
    <circle cx="242" cy="586" r="16" fill="#262626"/><circle cx="242" cy="586" r="8" fill="none" stroke="#F4F2F0" stroke-width="1.8"/><circle cx="242" cy="586" r="3" fill="#F4F2F0"/>

    <rect x="130" y="650" width="60" height="4" rx="2" fill="#F4F2F0" opacity="0.5"/>
  </g>

  <!-- captions -->
  <g font-family="'Segoe UI',Helvetica,Arial,sans-serif" fill="#6E6C70" font-size="13" font-weight="700" letter-spacing="3" text-anchor="middle">
    <text x="250" y="760">FEED CHRONOLOGIQUE</text>
    <text x="600" y="760">DETAIL DU SHOOT</text>
    <text x="950" y="760">CAPTURE · 4 PHOTOS</text>
  </g>
</svg>
